<svg width="256" height="256" viewBox="0 0 256 256" fill="none" xmlns="http://www.w3.org/2000/svg">
	<g id="play-icon">
		<g id="outer-ring">
			<path d="M127.669 234.667C186.581 234.667 234.336 186.912 234.336 128C234.336 69.088 186.581 21.3333 127.669 21.3333C68.7573 21.3333 21.0027 69.088 21.0027 128C21.0027 186.912 68.7573 234.667 127.669 234.667Z" fill="#F3889F"/>
		</g>
		<path id="play-elem" d="M159.68 109.131L128.747 91.3173C121.067 86.8373 111.787 86.8373 104.107 91.3173C96.4267 95.7973 91.84 103.691 91.84 112.651V148.384C91.84 157.237 96.4267 165.237 104.107 169.717C107.831 171.886 112.064 173.029 116.373 173.029C120.683 173.029 124.916 171.886 128.64 169.717L159.573 151.904C167.253 147.424 171.84 139.531 171.84 130.571C172.053 121.611 167.467 113.611 159.68 109.131V109.131Z" fill="white"/>
	</g>
</svg>
